<?xml version="1.0" encoding="UTF-8" standalone="no"?>
<!-- Created with Inkscape (http://www.inkscape.org/) -->

<svg
   xmlns:dc="http://purl.org/dc/elements/1.1/"
   xmlns:cc="http://creativecommons.org/ns#"
   xmlns:rdf="http://www.w3.org/1999/02/22-rdf-syntax-ns#"
   xmlns:svg="http://www.w3.org/2000/svg"
   xmlns="http://www.w3.org/2000/svg"
   xmlns:sodipodi="http://sodipodi.sourceforge.net/DTD/sodipodi-0.dtd"
   xmlns:inkscape="http://www.inkscape.org/namespaces/inkscape"
   width="210mm"
   height="297mm"
   id="svg2"
   version="1.1"
   inkscape:version="0.48.5 r10040"
   sodipodi:docname="pixel.svg">
  <defs
     id="defs4" />
  <sodipodi:namedview
     id="base"
     pagecolor="#ffffff"
     bordercolor="#666666"
     borderopacity="1.0"
     inkscape:pageopacity="0.0"
     inkscape:pageshadow="2"
     inkscape:zoom="1.0804537"
     inkscape:cx="623.85118"
     inkscape:cy="-237.5832"
     inkscape:document-units="px"
     inkscape:current-layer="layer1"
     showgrid="false"
     inkscape:snap-bbox="true"
     inkscape:bbox-paths="true"
     inkscape:bbox-nodes="true"
     inkscape:window-width="1920"
     inkscape:window-height="1030"
     inkscape:window-x="0"
     inkscape:window-y="29"
     inkscape:window-maximized="1">
    <inkscape:grid
       type="xygrid"
       id="grid2989" />
  </sodipodi:namedview>
  <metadata
     id="metadata7">
    <rdf:RDF>
      <cc:Work
         rdf:about="">
        <dc:format>image/svg+xml</dc:format>
        <dc:type
           rdf:resource="http://purl.org/dc/dcmitype/StillImage" />
        <dc:title />
      </cc:Work>
    </rdf:RDF>
  </metadata>
  <g
     inkscape:label="Calque 1"
     inkscape:groupmode="layer"
     id="layer1"
     style="display:inline">
    <path
       d="m 528.61026,1038.0735 27.11295,0 0,45.251 -9.16317,0 0,-36.0879 -9.03766,0 0,36.0879 -8.91212,0 0,-45.251 m 8.91212,18.2008 9.03766,0 0,8.9121 -9.03766,0 0,-8.9121"
       style="font-size:137.93103027px;font-style:normal;font-variant:normal;font-weight:normal;font-stretch:normal;text-align:center;line-height:125%;letter-spacing:0px;word-spacing:0px;text-anchor:middle;fill:#000000;fill-opacity:1;stroke:none;display:inline;font-family:Pixel;-inkscape-font-specification:Pixel"
       id="path3125"
       inkscape:connector-curvature="0" />
    <path
       d="m 974.47335,1038.1362 26.92465,0 0,9.0377 -17.88699,0 0,9.2259 27.05019,0 0,8.9122 -27.17571,0 0,9.0376 27.17571,0 0,8.9749 -36.08785,0 0,-45.1883 m 18.07531,9.0377 8.84934,0 0,9.2259 -8.84934,0 0,-9.2259 m 8.84934,18.1381 9.1632,0 0,9.0376 -9.1632,0 0,-9.0376"
       style="font-size:137.93103027px;font-style:normal;font-variant:normal;font-weight:normal;font-stretch:normal;text-align:center;line-height:125%;letter-spacing:0px;word-spacing:0px;text-anchor:middle;fill:#000000;fill-opacity:1;stroke:none;display:inline;font-family:Pixel;-inkscape-font-specification:Pixel"
       id="path3127"
       inkscape:connector-curvature="0" />
    <path
       d="m 73.897815,1038.0735 26.987435,0 0,8.9749 -18.012547,0 0,27.364 18.012547,0 0,8.9121 -26.987435,0 0,-45.251"
       style="font-size:137.93103027px;font-style:normal;font-variant:normal;font-weight:normal;font-stretch:normal;text-align:center;line-height:125%;letter-spacing:0px;word-spacing:0px;text-anchor:middle;fill:#000000;fill-opacity:1;stroke:none;display:inline;font-family:Pixel;-inkscape-font-specification:Pixel"
       id="path3129"
       inkscape:connector-curvature="0" />
    <path
       d="m 17.168583,1038.199 17.949785,0 0,9.1632 -8.912131,0 0,27.1129 8.912131,0 0,8.8494 -17.949785,0 0,-45.1255 m 17.949785,9.1632 8.912127,0 0,27.1129 -8.912127,0 0,-27.1129"
       style="font-size:137.93103027px;font-style:normal;font-variant:normal;font-weight:normal;font-stretch:normal;text-align:center;line-height:125%;letter-spacing:0px;word-spacing:0px;text-anchor:middle;fill:#000000;fill-opacity:1;stroke:none;display:inline;font-family:Pixel;-inkscape-font-specification:Pixel"
       id="path3131"
       inkscape:connector-curvature="0" />
    <path
       d="m 244.33654,1038.0735 27.11296,0 0,9.1004 -18.13807,0 0,9.0376 9.16318,0 0,9.1005 -9.16318,0 0,9.1004 18.13807,0 0,8.9121 -27.11296,0 0,-45.251"
       style="font-size:137.93103027px;font-style:normal;font-variant:normal;font-weight:normal;font-stretch:normal;text-align:center;line-height:125%;letter-spacing:0px;word-spacing:0px;text-anchor:middle;fill:#000000;fill-opacity:1;stroke:none;display:inline;font-family:Pixel;-inkscape-font-specification:Pixel"
       id="path3133"
       inkscape:connector-curvature="0" />
    <path
       d="m 812.82132,1038.0735 27.17572,0 0,9.1631 -18.26359,0 0,9.0377 18.26359,0 0,8.9749 -18.26359,0 0,18.0753 -8.91213,0 0,-45.251"
       style="font-size:137.93103027px;font-style:normal;font-variant:normal;font-weight:normal;font-stretch:normal;text-align:center;line-height:125%;letter-spacing:0px;word-spacing:0px;text-anchor:middle;fill:#000000;fill-opacity:1;stroke:none;display:inline;font-family:Pixel;-inkscape-font-specification:Pixel"
       id="path3135"
       inkscape:connector-curvature="0" />
    <path
       d="m 1087.9947,1038.199 36.2761,0 0,9.1632 -27.2385,0 0,26.9874 18.0753,0 0,-8.9121 -9.0376,0 -0.063,-9.0377 18.2636,0 0,26.9247 -36.2761,0 0,-45.1255"
       style="font-size:137.93103027px;font-style:normal;font-variant:normal;font-weight:normal;font-stretch:normal;text-align:center;line-height:125%;letter-spacing:0px;word-spacing:0px;text-anchor:middle;fill:#000000;fill-opacity:1;stroke:none;display:inline;font-family:Pixel;-inkscape-font-specification:Pixel"
       id="path3137"
       inkscape:connector-curvature="0" />
    <path
       d="m 642.31979,1038.0735 8.91213,0 0,18.0753 9.16318,0 0,-18.0753 9.03765,0 0,45.251 -9.03765,0 0,-18.0125 -9.16318,0 0,18.0125 -8.91213,0 0,-45.251"
       style="font-size:137.93103027px;font-style:normal;font-variant:normal;font-weight:normal;font-stretch:normal;text-align:center;line-height:125%;letter-spacing:0px;word-spacing:0px;text-anchor:middle;fill:#000000;fill-opacity:1;stroke:none;display:inline;font-family:Pixel;-inkscape-font-specification:Pixel"
       id="path3139"
       inkscape:connector-curvature="0" />
    <path
       d="m -25,1037.3622 9.037654,0 0,45.251 -9.037654,0 0,-45.251"
       style="font-size:137.93103027px;font-style:normal;font-variant:normal;font-weight:normal;font-stretch:normal;text-align:center;line-height:125%;letter-spacing:0px;word-spacing:0px;text-anchor:middle;fill:#000000;fill-opacity:1;stroke:none;display:inline;font-family:Pixel;-inkscape-font-specification:Pixel"
       id="path3141"
       inkscape:connector-curvature="0" />
    <path
       d="m 130.6898,1038.0107 27.0502,0 0,45.3138 -27.0502,0 0,-18.1381 9.03765,0 0,9.0377 8.91213,0 0,-27.1757 -17.94978,0 0,-9.0377"
       style="font-size:137.93103027px;font-style:normal;font-variant:normal;font-weight:normal;font-stretch:normal;text-align:center;line-height:125%;letter-spacing:0px;word-spacing:0px;text-anchor:middle;fill:#000000;fill-opacity:1;stroke:none;display:inline;font-family:Pixel;-inkscape-font-specification:Pixel"
       id="path3143"
       inkscape:connector-curvature="0" />
    <path
       d="m 755.96658,1038.1362 9.03765,0 0,18.2636 9.03766,0 0,-18.2636 9.10041,0 0,18.2636 -9.10041,0 0,8.9122 9.10041,0 0,18.0125 -9.10041,0 0,-18.0125 -9.03766,0 0,18.0125 -9.03765,0 0,-45.1883"
       style="font-size:137.93103027px;font-style:normal;font-variant:normal;font-weight:normal;font-stretch:normal;text-align:center;line-height:125%;letter-spacing:0px;word-spacing:0px;text-anchor:middle;fill:#000000;fill-opacity:1;stroke:none;display:inline;font-family:Pixel;-inkscape-font-specification:Pixel"
       id="path3145"
       inkscape:connector-curvature="0" />
    <path
       d="m 301.19131,1038.0735 9.03765,0 0,36.2761 18.07531,0 0,8.9749 -27.11296,0 0,-45.251"
       style="font-size:137.93103027px;font-style:normal;font-variant:normal;font-weight:normal;font-stretch:normal;text-align:center;line-height:125%;letter-spacing:0px;word-spacing:0px;text-anchor:middle;fill:#000000;fill-opacity:1;stroke:none;display:inline;font-family:Pixel;-inkscape-font-specification:Pixel"
       id="path3147"
       inkscape:connector-curvature="0" />
    <path
       d="m 1192.9804,1038.0735 8.9121,0 0,9.1631 9.1632,0 0,9.0377 9.0376,0 0,-9.0377 9.0377,0 0,-9.1631 8.8494,0 0,45.251 -8.8494,0 0,-27.0502 -9.0377,0 0,8.9121 -9.0376,0 0,-8.9121 -9.1632,0 0,27.0502 -8.9121,0 0,-45.251"
       style="font-size:137.93103027px;font-style:normal;font-variant:normal;font-weight:normal;font-stretch:normal;text-align:center;line-height:125%;letter-spacing:0px;word-spacing:0px;text-anchor:middle;fill:#000000;fill-opacity:1;stroke:none;display:inline;font-family:Pixel;-inkscape-font-specification:Pixel"
       id="path3149"
       inkscape:connector-curvature="0" />
    <path
       d="m 585.46505,1038.199 9.10042,0 0,45.1255 -9.10042,0 0,-45.1255 m 9.10042,36.2761 0,0 m -0.0628,-36.2761 18.07533,0 0,45.1255 -18.07533,0 0,-8.8494 9.16321,0 0,-27.2385 -9.16321,0 0,-9.0376"
       style="font-size:137.93103027px;font-style:normal;font-variant:normal;font-weight:normal;font-stretch:normal;text-align:center;line-height:125%;letter-spacing:0px;word-spacing:0px;text-anchor:middle;fill:#000000;fill-opacity:1;stroke:none;display:inline;font-family:Pixel;-inkscape-font-specification:Pixel"
       id="path3153"
       inkscape:connector-curvature="0" />
    <path
       d="m 887.6886,1065.1864 -9.03767,0 0,18.1381 -9.03762,0 0,-45.251 27.23845,0 0,9.0376 -18.07529,0 0,9.0377 8.91213,0 0,9.0376 m 0.12554,-18.0753 9.03762,0 -0.0628,18.0753 -9.03767,0 0.0628,-18.0753"
       style="font-size:137.93103027px;font-style:normal;font-variant:normal;font-weight:normal;font-stretch:normal;text-align:center;line-height:125%;letter-spacing:0px;word-spacing:0px;text-anchor:middle;fill:#000000;fill-opacity:1;stroke:none;display:inline;font-family:Pixel;-inkscape-font-specification:Pixel"
       id="path3155"
       inkscape:connector-curvature="0" />
    <path
       d="m 1031.3282,1038.0735 9.1004,0 0,45.1255 -9.1004,0 0,-45.1255 m 9.1004,36.2761 0,0 m -0.063,-36.2761 18.0753,0 0,45.1255 -18.0753,0 0,-8.8494 9.1632,0 0,-27.2385 -9.1632,0 0,-9.0376 m 18.1381,36.2761 8.9121,0 0,8.9749 -8.9121,0 0,-8.9749"
       style="font-size:137.93103027px;font-style:normal;font-variant:normal;font-weight:normal;font-stretch:normal;text-align:center;line-height:125%;letter-spacing:0px;word-spacing:0px;text-anchor:middle;fill:#000000;fill-opacity:1;stroke:none;display:inline;font-family:Pixel;-inkscape-font-specification:Pixel"
       id="path3157"
       inkscape:connector-curvature="0" />
    <path
       d="m 926.46804,1038.0735 27.23845,0 0,9.0376 -18.07528,0 0,9.0377 8.91212,0 0,9.0376 9.16316,0 0,18.1381 -9.16316,0 0,-18.1381 -9.03766,0 0,18.1381 -9.03763,0 0,-45.251 m 18.20079,9.0376 9.03766,0 0,9.0377 -9.03766,0 0,-9.0377"
       style="font-size:137.93103027px;font-style:normal;font-variant:normal;font-weight:normal;font-stretch:normal;text-align:center;line-height:125%;letter-spacing:0px;word-spacing:0px;text-anchor:middle;fill:#000000;fill-opacity:1;stroke:none;display:inline;font-family:Pixel;-inkscape-font-specification:Pixel"
       id="path3159"
       inkscape:connector-curvature="0" />
    <path
       d="m 471.75555,1038.0735 27.11296,0 0,9.0376 -17.9498,0 0,9.1632 17.9498,0 0,27.0502 -27.11296,0 0,-9.1004 18.20083,0 0,-9.0377 -18.20083,0 0,-27.1129"
       style="font-size:137.93103027px;font-style:normal;font-variant:normal;font-weight:normal;font-stretch:normal;text-align:center;line-height:125%;letter-spacing:0px;word-spacing:0px;text-anchor:middle;fill:#000000;fill-opacity:1;stroke:none;display:inline;font-family:Pixel;-inkscape-font-specification:Pixel"
       id="path3161"
       inkscape:connector-curvature="0" />
    <path
       d="m 414.90081,1038.199 9.03767,0 0,36.1506 9.16316,0 0,-36.1506 8.91213,0 0,45.1255 -27.11296,0 0,-45.1255"
       style="font-size:137.93103027px;font-style:normal;font-variant:normal;font-weight:normal;font-stretch:normal;text-align:center;line-height:125%;letter-spacing:0px;word-spacing:0px;text-anchor:middle;fill:#000000;fill-opacity:1;stroke:none;display:inline;font-family:Pixel;-inkscape-font-specification:Pixel"
       id="path3165"
       inkscape:connector-curvature="0" />
    <path
       d="m 358.04608,1038.199 8.91212,0 0,27.113 9.16321,0 0,-27.113 9.03762,0 0,36.2761 -9.03762,0 0,8.8494 -9.16321,0 0,-8.9749 -8.91212,0 0,-36.1506"
       style="font-size:137.93103027px;font-style:normal;font-variant:normal;font-weight:normal;font-stretch:normal;text-align:center;line-height:125%;letter-spacing:0px;word-spacing:0px;text-anchor:middle;fill:#000000;fill-opacity:1;stroke:none;display:inline;font-family:Pixel;-inkscape-font-specification:Pixel"
       id="path3167"
       inkscape:connector-curvature="0" />
    <path
       d="m 1181.1256,1083.3245 -8.9121,0 0,-9.1632 -9.1632,0 0,-9.0376 -9.0377,0 0,9.0376 -9.0376,0 0,9.1632 -8.8494,0 0,-45.251 8.8494,0 0,27.0502 9.0376,0 0,-8.9122 9.0377,0 0,8.9122 9.1632,0 0,-27.0502 8.9121,0 0,45.251"
       style="font-size:137.93103027px;font-style:normal;font-variant:normal;font-weight:normal;font-stretch:normal;text-align:center;line-height:125%;letter-spacing:0px;word-spacing:0px;text-anchor:middle;fill:#000000;fill-opacity:1;stroke:none;display:inline;font-family:Pixel;-inkscape-font-specification:Pixel"
       id="path3169"
       inkscape:connector-curvature="0" />
    <path
       d="m 699.11178,1038.1362 9.03762,0 0,18.2636 9.03767,0 0,-18.2636 9.10041,0 0,18.2636 -9.10041,0 0,8.9122 9.10041,0 0,18.0125 -9.10041,0 0,-18.0125 -9.03767,0 0,18.0125 -9.03762,0 0,-18.0125 9.03762,0 0,-8.9122 -9.03762,0 0,-18.2636"
       style="font-size:137.93103027px;font-style:normal;font-variant:normal;font-weight:normal;font-stretch:normal;text-align:center;line-height:125%;letter-spacing:0px;word-spacing:0px;text-anchor:middle;fill:#000000;fill-opacity:1;stroke:none;display:inline;font-family:Pixel;-inkscape-font-specification:Pixel"
       id="path3171"
       inkscape:connector-curvature="0" />
    <path
       d="m 187.48179,1038.199 8.91213,0 0,18.2008 9.16321,0 0,-18.2008 9.03762,0 0,27.1757 -9.03762,0 0,17.9498 -9.16321,0 0,-17.9498 -8.91213,0 0,-27.1757"
       style="font-size:137.93103027px;font-style:normal;font-variant:normal;font-weight:normal;font-stretch:normal;text-align:center;line-height:125%;letter-spacing:0px;word-spacing:0px;text-anchor:middle;fill:#000000;fill-opacity:1;stroke:none;display:inline;font-family:Pixel;-inkscape-font-specification:Pixel"
       id="path3173"
       inkscape:connector-curvature="0" />
    <path
       inkscape:connector-curvature="0"
       id="path3095"
       style="font-size:137.93103027px;font-style:normal;font-variant:normal;font-weight:normal;font-stretch:normal;text-align:center;line-height:125%;letter-spacing:0px;word-spacing:0px;text-anchor:middle;fill:#000000;fill-opacity:1;stroke:none;display:inline;font-family:Pixel;-inkscape-font-specification:Pixel"
       d="m 1267.6593,1038.1362 27.1758,0 0,18.2636 -9.1005,0 0,8.7866 -8.9121,0 0,9.1632 18.0126,0 0,8.9749 -27.1758,0 0,-18.1381 9.1632,0 0,-8.7866 8.9121,0 0,-9.2259 -18.0753,0 0,-9.0377" />
    <text
       xml:space="preserve"
       style="font-size:63.25828552px;font-style:normal;font-weight:normal;text-align:center;line-height:125%;letter-spacing:0px;word-spacing:0px;text-anchor:middle;fill:#000000;fill-opacity:1;stroke:none;font-family:Sans"
       x="184.19106"
       y="1152.9561"
       id="text4666"
       sodipodi:linespacing="125%"><tspan
         sodipodi:role="line"
         id="tspan4668"
         x="184.19104"
         y="1152.9561"
         style="font-family:pixel;-inkscape-font-specification:pixel">NAT0123456789,&quot;'´&amp;!.?</tspan></text>
    <path
       inkscape:connector-curvature="0"
       id="path4716"
       style="font-size:63.25828552px;font-style:normal;font-weight:normal;text-align:center;line-height:125%;letter-spacing:0px;word-spacing:0px;text-anchor:middle;fill:#000000;fill-opacity:1;stroke:none;font-family:pixel;-inkscape-font-specification:pixel"
       d="m 294.03936,1246.1836 9.1092,0 0,9.2357 -9.1092,0 0,-9.2357 m 18.09187,0 9.23571,0 0,9.2357 -9.23571,0 0,-9.2357" />
    <path
       inkscape:connector-curvature="0"
       id="path4718"
       style="font-size:63.25828552px;font-style:normal;font-weight:normal;text-align:center;line-height:125%;letter-spacing:0px;word-spacing:0px;text-anchor:middle;fill:#000000;fill-opacity:1;stroke:none;font-family:pixel;-inkscape-font-specification:pixel"
       d="m 330.23396,1247.006 8.98268,0 0,18.0919 -8.98268,0 0,-18.0919" />
    <path
       inkscape:connector-curvature="0"
       id="path4720"
       style="font-size:63.25828552px;font-style:normal;font-weight:normal;text-align:center;line-height:125%;letter-spacing:0px;word-spacing:0px;text-anchor:middle;fill:#000000;fill-opacity:1;stroke:none;font-family:pixel;-inkscape-font-specification:pixel"
       d="m 348.39601,1247.006 8.98268,0 0,18.0919 -8.98268,0 0,-18.0919" />
    <path
       inkscape:connector-curvature="0"
       id="path4722"
       style="font-size:63.25828552px;font-style:normal;font-weight:normal;text-align:center;line-height:125%;letter-spacing:0px;word-spacing:0px;text-anchor:middle;fill:#000000;fill-opacity:1;stroke:none;font-family:pixel;-inkscape-font-specification:pixel"
       d="m 366.74783,1246.8795 27.32758,0 0,9.2357 -18.09187,0 0,8.9827 18.09187,0 0,9.1092 -18.09187,0 0,9.2357 18.09187,0 0,8.9194 -27.32758,0 0,-18.1551 9.23571,0 0,-9.1092 -9.23571,0 0,-18.2184 m 18.34491,9.2357 8.98267,0 0,8.9827 -8.98267,0 0,-8.9827 m -0.25304,18.0919 9.23571,0 0,9.2357 -9.23571,0 0,-9.2357 m 9.23571,-8.9827 9.1092,0 0,9.1092 -9.1092,0 0,-9.1092" />
  </g>
</svg>
